<svg xmlns="http://www.w3.org/2000/svg" viewBox="0 0 512 512" role="img" aria-label="Evercam Installer">
  <rect width="512" height="512" rx="96" fill="#fff8f7"/>
  <g fill="#c4161c">
    <path d="M256 74a182 182 0 0 1 141 67l-76 44a94 94 0 0 0-65-25 96 96 0 0 0-33 6l-44-76a181 181 0 0 1 77-16z"/>
    <path d="M414 171a182 182 0 0 1 13 155h-88a96 96 0 0 0-8-84l76-44c3-9 5-18 7-27z"/>
    <path d="M409 360a183 183 0 0 1-134 77v-88a96 96 0 0 0 64-35h88a181 181 0 0 1-18 46z"/>
    <path d="M237 437a182 182 0 0 1-141-67l76-44a94 94 0 0 0 65 25 96 96 0 0 0 33-6l44 76a181 181 0 0 1-77 16z"/>
    <path d="M79 341a182 182 0 0 1-13-155h88a96 96 0 0 0 8 84l-76 44a181 181 0 0 1-7 27z"/>
    <path d="M84 152a183 183 0 0 1 134-77v88a96 96 0 0 0-64 35H66a181 181 0 0 1 18-46z"/>
  </g>
  <circle cx="256" cy="256" r="62" fill="#101c27"/>
</svg>
